PathFileType	4	(X/Y/Z)	C:/Users/Carlo/Dropbox/Carlos/SARAH/CongressoMarcha2025/WorkshopOpenSim/C3D/Caso01/Walking 02.c3d.trc
DataRate	CameraRate	NumFrames	NumMarkers	Units	OrigDataRate	OrigDataStartFrame	OrigNumFrames
100.000000	100.000000	4	85	mm	100.000000	91	364
Frame#	Time	PELO			PELA			PELL			PELP			LFEO			LFEA			LFEL			LFEP			LTIO			LTIA			LTIL			LTIP			LFOO			LFOA			LFOL			LFOP			LTOO			LTOA			LTOL			LTOP			RFEO			RFEA			RFEL			RFEP			RTIO			RTIA			RTIL			RTIP			RFOO			RFOA			RFOL			RFOP			RTOO			RTOA			RTOL			RTOP			LASI			RASI			RPSI			LTHI			LKNE			LTIB			LANK			LHEE			LTOE			RTHI			RKNE			RTIB			RANK			RHEE			RTOE			LPSI			LHipAngles			LKneeAngles			LAbsAnkleAngle			LAnkleAngles			RHipAngles			RKneeAngles			RAnkleAngles			RAbsAnkleAngle			LPelvisAngles			RPelvisAngles			LFootProgressAngles			RFootProgressAngles			LHipPower			LKneePower			LAnklePower			RHipPower			RKneePower			RAnklePower			LGroundReactionForce			LNormalisedGRF			LAnkleForce			RAnkleForce			RKneeForce			LKneeForce			RHipForce			LHipForce			LGroundReactionMoment			LAnkleMoment			RAnkleMoment			RKneeMoment			LKneeMoment			RHipMoment			LHipMoment			
		X1	Y1	Z1	X2	Y2	Z2	X3	Y3	Z3	X4	Y4	Z4	X5	Y5	Z5	X6	Y6	Z6	X7	Y7	Z7	X8	Y8	Z8	X9	Y9	Z9	X10	Y10	Z10	X11	Y11	Z11	X12	Y12	Z12	X13	Y13	Z13	X14	Y14	Z14	X15	Y15	Z15	X16	Y16	Z16	X17	Y17	Z17	X18	Y18	Z18	X19	Y19	Z19	X20	Y20	Z20	X21	Y21	Z21	X22	Y22	Z22	X23	Y23	Z23	X24	Y24	Z24	X25	Y25	Z25	X26	Y26	Z26	X27	Y27	Z27	X28	Y28	Z28	X29	Y29	Z29	X30	Y30	Z30	X31	Y31	Z31	X32	Y32	Z32	X33	Y33	Z33	X34	Y34	Z34	X35	Y35	Z35	X36	Y36	Z36	X37	Y37	Z37	X38	Y38	Z38	X39	Y39	Z39	X40	Y40	Z40	X41	Y41	Z41	X42	Y42	Z42	X43	Y43	Z43	X44	Y44	Z44	X45	Y45	Z45	X46	Y46	Z46	X47	Y47	Z47	X48	Y48	Z48	X49	Y49	Z49	X50	Y50	Z50	X51	Y51	Z51	X52	Y52	Z52	X53	Y53	Z53	X54	Y54	Z54	X55	Y55	Z55	X56	Y56	Z56	X57	Y57	Z57	X58	Y58	Z58	X59	Y59	Z59	X60	Y60	Z60	X61	Y61	Z61	X62	Y62	Z62	X63	Y63	Z63	X64	Y64	Z64	X65	Y65	Z65	X66	Y66	Z66	X67	Y67	Z67	X68	Y68	Z68	X69	Y69	Z69	X70	Y70	Z70	X71	Y71	Z71	X72	Y72	Z72	X73	Y73	Z73	X74	Y74	Z74	X75	Y75	Z75	X76	Y76	Z76	X77	Y77	Z77	X78	Y78	Z78	X79	Y79	Z79	X80	Y80	Z80	X81	Y81	Z81	X82	Y82	Z82	X83	Y83	Z83	X84	Y84	Z84	X85	Y85	Z85	

92	0.91	105.3669052124024	916.5286254882817	1035.568115234375	97.26523590087896	909.3471679687505	907.0969848632817	-23.24987030029298	913.220336914063	1043.863891601563	101.6082077026368	1045.21240234375	1028.61181640625	44.05136108398439	511.6011352539065	1166.119018554688	18.99310302734376	385.1858215332034	763.5816650390627	-377.8588256835939	516.244323730469	1190.925048828125	41.05414199829103	914.891235351563	1039.653930664063	60.50380325317386	104.7577743530274	1344.580688476563	31.24402999877931	-66.21746063232425	957.5019531250005	-362.3625793457032	102.1785507202149	1377.684936523438	44.80632400512697	492.9321899414065	1174.30810546875	41.30429458618165	77.28872680664065	1192.322143554688	37.68599319458009	294.2204589843751	1173.909545898438	-176.280746459961	74.313591003418	1200.028076171875	48.7299728393555	95.81623840332034	1409.147094726563	38.82906341552736	71.112907409668	1120.047119140625	37.62298583984376	143.4234771728516	1113.909545898438	-33.69927978515626	70.12121582031253	1122.61572265625	41.30426406860353	77.28871917724612	1192.322143554688	191.5089721679688	549.3132934570315	823.7543334960942	174.9176635742188	756.412048339844	454.2751464843752	-231.490203857422	522.1552734375002	827.5264282226567	169.6797637939454	918.1662597656255	1031.482421875	193.5295562744142	121.0917663574219	717.491882324219	292.9122924804689	220.1159820556642	320.3291320800782	-215.7873382568361	143.2083892822266	620.5821533203127	191.600570678711	529.902282714844	818.9375000000005	231.4351959228517	149.2389068603516	569.0701904296877	230.8668975830079	358.2570800781251	629.3148193359377	16.52374267578126	158.0137634277344	536.5986328125002	197.8037109375001	89.63401794433597	775.5514526367192	242.6456604003907	169.1071929931641	500.2430725097659	242.4562377929689	238.7799072265626	520.324645996094	171.0085144042969	172.0321502685547	489.4192504882815	231.4351959228517	149.2388458251954	569.0701904296877	-8.096760749816898	1008.011474609375	990.3057250976567	207.2470245361329	1013.550598144532	976.4159545898442	166.6528625488282	1017.160705566407	1176.72119140625	-65.14530181884768	714.9975585937502	1109.040649414063	-13.84516048431397	512.238220214844	1169.52294921875	-15.38391780853272	290.2565917968751	1268.380981445313	15.14342594146729	104.4810943603516	1348.131591796875	54.40472793579104	68.02376556396487	1425.354370117188	51.99017715454104	56.40834426879886	1198.931030273438	293.6400146484376	797.1689453125005	958.095092773438	248.3896026611329	552.9652099609377	823.2470703125005	264.9864196777345	395.6410217285159	803.8256835937505	238.7162017822267	118.6501922607422	728.1901855468752	178.7970733642579	64.11762237548831	772.7011718750005	221.9025878906251	131.1257781982422	565.5339355468752	54.24267578125003	1026.035034179688	1178.454345703125	-2.101091384887696	-0.3174975812435151	-14.21819305419923	1.342865824699402	-0.6231266260147097	6.362840175628666	0	0	18.8523235321045	-0.2241696119308473	2.47598958015442	18.8706169128418	-3.473000049591066	-1.698025226593018	32.3126907348633	3.179781198501589	-15.0285816192627	15.35762214660645	-0.6167560219764712	4.734325408935549	2.106003761291505	0	0	2.098812580108643	-1.670634031295777	-3.604367733001711	3.094205856323244	1.670634031295777	3.604367733001711	3.094205856323244	0.9527107477188115	-1.954349398612977	-85.11600494384768	-0.1515046507120133	-8.894041061401371	-106.1018295288087	nan	nan	nan	nan	nan	nan	nan	nan	nan	0	0.5823514461517336	0	0	-3.342069625854494	0	0	-0.0005072584026493134	0	nan	nan	nan	nan	nan	nan	nan	nan	nan	-0.03423233702778818	-0.4527648091316225	-0.2702640593051912	-0.1639065444469452	0.9527353644371037	-0.8949279189109807	nan	nan	nan	0.02274747751653195	1.867005705833436	0.04831092059612277	nan	nan	nan	nan	nan	nan	nan	nan	nan	7.046215625302312e-16	-0.3517867624759675	-12.66061210632325	121.3789901733399	-0.2537488043308259	-451.1555480957034	nan	nan	nan	-23.59489822387696	-25.29821395874025	605.4929199218752	nan	nan	nan	
93	0.92	105.9794158935547	912.6264648437505	1016.75830078125	96.5979843139649	905.4591674804692	888.3734741210942	-22.54707336425782	909.2768554687505	1026.337036132813	102.1113815307618	1041.309814453125	1009.856994628907	43.9767532348633	509.7915649414065	1156.141967773438	13.30143356323243	375.3318786621095	756.067321777344	-378.0824584960939	517.410583496094	1185.942260742188	41.71113586425783	910.968139648438	1021.485656738282	60.85602188110354	106.646110534668	1343.018798828125	26.71620178222658	-72.38307952880862	959.8862304687505	-361.7343139648439	106.4503707885743	1380.76611328125	44.75115966796876	491.2966918945315	1164.71533203125	41.25869750976564	76.66909790039065	1191.284912109375	37.87900543212892	293.2684631347657	1169.267333984375	-176.3110961914063	74.11463165283206	1199.552124023438	49.22420883178714	98.79759216308599	1407.752807617188	38.60354232788087	69.29291534423831	1119.12890625	37.47706985473634	141.4927062988282	1111.789672851563	-33.9197120666504	68.44151306152347	1121.884521484375	41.25863265991212	76.66912078857425	1191.284790039063	191.1848144531251	543.014831542969	807.9288940429692	178.1625366210938	746.705505371094	436.0714416503909	-232.2883605957032	518.394958496094	809.272827148438	170.2476501464844	914.285034179688	1012.031066894532	194.1145019531251	120.5041275024415	676.1669921875002	300.4129028320314	242.9409790039064	285.9217529296876	-214.8773498535157	149.5667419433594	573.8804321289065	191.3172302246094	523.922058105469	801.974731445313	231.5554962158204	157.5881652832032	529.6030273437502	231.2393341064454	362.5724182128907	602.401794433594	16.54426574707032	168.3346405029297	498.4097290039065	198.5644683837892	85.58620452880862	732.2001953125002	242.5525054931642	181.5888214111329	462.0705566406252	242.4471282958986	249.9169311523439	486.3368225097659	170.8820800781251	185.1709899902344	451.672790527344	231.5554962158204	157.5881500244141	529.602966308594	-7.949412822723392	1004.079833984375	972.6421508789067	207.2244110107423	1009.687561035157	956.605834960938	168.3547515869141	1013.1650390625	1157.148559570313	-65.2764587402344	712.820007324219	1096.28369140625	-13.86983299255372	510.8357238769534	1160.226318359375	-15.00732707977296	290.9086914062501	1263.676879882813	15.53646087646485	106.6251220703126	1347.066772460938	54.76567459106448	71.0158386230469	1424.692260742188	51.94439697265628	55.95185470581058	1198.399536132813	294.5017700195314	790.8516235351567	940.067260742188	248.0884399414064	546.3230590820315	807.7482910156255	265.1048583984376	390.8169250488284	780.312866210938	239.1183166503907	117.3061828613282	687.4222412109377	179.212875366211	59.78631973266604	728.5687255859377	221.963104248047	139.6936035156251	525.2412109375002	55.97623062133792	1022.164001464844	1160.100341796875	-2.460676908493043	-0.5894600152969363	-15.35491085052491	1.408859491348267	-0.519558906555176	6.432541370391849	0	0	19.08982849121094	-0.3445014357566835	2.978731632232667	19.11664962768555	-3.566876888275148	-2.699207067489625	31.68290901184083	2.742951393127442	-15.73382091522218	11.41152095794678	-0.8518974781036381	5.820641040802004	2.172237634658814	0	0	2.161024570465089	-1.719225049018861	-4.174716949462892	3.069834232330324	1.719225049018861	4.174716949462892	3.069834232330324	0.8899398446083073	-2.096472024917603	-84.16319274902347	-0.08424326777458194	-8.723343849182132	-109.5649490356446	nan	nan	nan	nan	nan	nan	nan	nan	nan	0	0.6384461522102358	0	0	-3.411941051483156	0	0	0.002710391301661731	0	nan	nan	nan	nan	nan	nan	nan	nan	nan	-0.03100101463496686	-0.5059980750083926	-0.2244276553392411	-0.1642712354660035	0.9296827912330632	-0.9361219406127934	nan	nan	nan	0.08188311010599139	1.903519988059998	0.09458741545677191	nan	nan	nan	nan	nan	nan	nan	nan	nan	1.752672104129127e-15	-1.403877019882203	-1.282433390617371	131.3922424316407	-1.388669133186341	-527.2158813476565	nan	nan	nan	-54.34111022949222	-23.57200813293458	666.6162719726565	nan	nan	nan	
94	0.93	106.5127792358399	908.7350463867192	997.783081054688	95.70989227294925	901.627807617188	869.506713867188	-21.8988265991211	905.350463867188	1008.784912109375	102.5387725830079	1037.421020507813	990.9878540039067	43.76515960693361	507.7991027832034	1145.062622070313	6.877529144287113	366.3761596679689	747.3587646484377	-378.3328857421876	518.7734985351565	1180.310424804688	42.30122756958009	907.0590209960942	1003.222045898438	61.11905288696292	108.9553146362305	1341.22119140625	22.45750045776368	-78.92426300048831	962.631469726563	-361.2015991210939	111.234489440918	1383.217529296875	44.56106567382814	489.5070800781252	1154.058837890625	41.2512893676758	75.88013458251956	1190.167724609375	38.01455688476564	291.983612060547	1163.704223632813	-176.3068847656251	73.68289947509768	1198.834228515625	49.58559036254886	102.4501342773438	1406.12158203125	38.4731903076172	67.02346801757815	1118.18310546875	37.39421463012697	139.0579528808594	1109.361938476563	-34.04618072509767	66.29100036621097	1121.072021484375	41.25134658813478	75.88011169433597	1190.167724609375	190.7616119384766	536.9827880859377	791.611938476563	180.0294494628907	737.427917480469	417.646667480469	-233.0624237060548	514.252380371094	791.5914916992192	170.7243347167969	910.410766601563	992.3441772460942	194.6502227783204	120.0948028564454	638.6062011718752	305.0962219238282	262.0808715820314	254.5499572753907	-214.7950897216798	154.7841796875001	533.6835937500002	190.9367218017579	518.207946777344	784.7212524414067	231.2688903808595	164.9529113769532	494.0208740234377	230.9145507812501	365.8048095703126	577.5476684570315	16.08029174804688	176.8450012207032	464.5118103027346	199.4556732177736	82.27622985839847	692.6934814453127	241.8733062744142	192.5117797851564	427.7966613769534	241.7552032470704	259.4624023437501	455.6389160156252	170.1437683105469	196.4758300781251	417.9602966308596	231.2688751220704	164.9528808593751	494.0208740234377	-7.924070358276371	1000.182800292969	954.9779663085942	207.0667419433595	1005.849426269532	936.5584106445317	170.3094329833985	1009.136779785157	1137.317138671875	-65.42317962646487	710.6425781250002	1083.058959960938	-14.01427841186524	509.3012695312502	1149.887451171875	-14.67421913146973	291.6669006347657	1258.288452148438	15.84301567077637	109.1996612548829	1345.723510742188	55.05975341796878	74.67169952392581	1423.842651367188	51.93979263305667	55.35339736938479	1197.820922851563	295.3931579589845	784.7579956054692	921.4165039062505	247.6797943115236	540.035339355469	791.614624023438	265.1727294921876	386.384460449219	757.3344726562502	239.5438079833986	116.2912826538087	650.1103515625002	179.8557434082032	56.26425552368167	688.424987792969	221.6994934082032	147.3014068603516	488.716003417969	57.9803276062012	1018.253234863282	1141.641357421875	-2.858101606369019	-0.8821420073509221	-16.36564445495606	1.4557284116745	-0.2909216582775117	6.781356334686283	0	0	19.23548316955567	-0.4646936953067782	3.480420112609865	19.27242279052735	-3.685602188110353	-3.585024118423464	31.07570838928224	2.381132364273072	-16.15158081054688	8.054099082946781	-1.032615900039673	6.652662277221683	2.356405019760133	0	0	2.340533733367921	-1.766364812850953	-4.808796405792238	3.022674560546877	1.766364812850953	4.808796405792238	3.022674560546877	0.8523577451705937	-2.193594455718995	-82.9858322143555	-0.09434196352958685	-8.409609794616703	-112.5944061279297	nan	nan	nan	nan	nan	nan	nan	nan	nan	0	0.6173510551452639	0	0	-3.09660863876343	0	0	-9.863184095593175e-05	0	nan	nan	nan	nan	nan	nan	nan	nan	nan	-0.02747405879199506	-0.5405321121215823	-0.1803616285324097	-0.1561872214078904	0.89466804265976	-0.9446987509727482	nan	nan	nan	0.1215138286352158	1.919379711151124	0.1698890626430512	nan	nan	nan	nan	nan	nan	nan	nan	nan	2.084258821441347e-15	-2.213061094284059	9.735114097595218	134.0248565673829	-2.339951515197755	-583.5976562500002	nan	nan	nan	-81.27309417724612	-22.19929122924805	695.081481933594	nan	nan	nan	
95	0.9400000000000001	106.9503936767579	904.9227905273442	978.6309204101567	94.61753082275393	897.9284667968755	850.4863891601567	-21.32012939453126	901.5070800781255	991.1623535156255	102.8755722045899	1033.614013671875	971.998901367188	43.37340545654298	505.6113586425784	1132.808349609375	-0.2262268066406251	358.3666992187501	737.3133544921877	-378.6419067382814	520.2915649414065	1173.866088867188	42.80868148803712	903.231323242188	984.8347778320317	61.2737731933594	111.7506790161133	1339.110229492188	18.48754501342774	-85.77433013916018	965.718383789063	-360.7994079589845	116.5667343139649	1384.927001953125	44.19408798217775	487.5550842285159	1142.26611328125	41.28965759277345	74.87947082519534	1188.95361328125	38.04925537109376	290.2473754882814	1157.052612304688	-176.2620697021485	72.92195129394534	1197.836303710938	49.78871154785159	106.8848876953126	1404.16259765625	38.45662307739259	64.21099090576175	1117.21728515625	37.37647628784181	136.0002899169922	1106.583618164063	-34.06061172485353	63.55847167968753	1120.17822265625	41.28964996337892	74.87946319580081	1188.95361328125	190.2234954833985	531.4707031250002	774.5751953125005	180.0375976562501	729.060241699219	398.9444580078127	-233.7742462158204	509.7969360351565	774.6718139648442	171.0921325683594	906.613891601563	972.4270629882817	195.0853576660157	119.477279663086	605.1370239257815	306.697235107422	276.7773437500001	225.8601379394532	-215.490692138672	157.7876129150391	500.2032470703127	190.4417419433594	512.9753417968752	766.9686279296877	230.5375976562501	170.6649322509766	462.3748779296877	229.8931579589845	367.7432556152345	554.4512939453127	15.10636901855469	182.8368530273438	434.8145446777346	200.4159698486329	79.39433288574222	657.5177001953127	240.5781097412111	201.0884704589845	397.3273010253909	240.363250732422	266.7812500000001	428.0194396972659	168.7677001953126	205.145721435547	388.1405334472659	230.5375976562501	170.6649322509766	462.3748779296877	-8.027815818786625	996.3891601562505	937.2797241210942	206.7752227783204	1002.109069824219	916.2944335937505	172.5073242187501	1005.143920898438	1117.250244140625	-65.56118774414065	708.4795532226565	1069.288452148438	-14.31946563720704	507.6182861328127	1138.421142578125	-14.42569541931153	292.5495605468751	1252.141479492188	16.04241180419923	112.2667846679688	1344.020141601563	55.276237487793	79.10142517089847	1422.710571289063	51.98839187622073	54.58819198608401	1197.205688476563	296.2557983398439	779.161010742188	901.990112304688	247.1491699218751	534.3806152343752	774.5621948242192	265.1670837402345	382.386444091797	734.7984619140627	239.9542694091798	115.2906112670899	616.6044921875002	180.6945800781251	53.36788177490237	652.8079223632815	221.0460357666017	153.2640686035157	456.1597290039065	60.25064849853518	1014.361572265625	1123.064819335938	-3.290926218032839	-1.195512890815735	-17.24365615844727	1.476922988891602	0.05529897660017016	7.421720981597904	0	0	19.25033760070801	-0.5860651135444643	3.986473321914675	19.29885482788087	-3.825638055801393	-4.279673099517824	30.52786827087404	2.076036453247071	-16.33328437805176	5.406436443328859	-1.152625560760498	7.203616142272953	2.618151426315309	0	0	2.597474098205567	-1.811164736747743	-5.491964817047121	2.95008134841919	1.811164736747743	5.491964817047121	2.95008134841919	0.8533650636672978	-2.236991405487061	-81.54108428955081	-0.1713945269584656	-7.959465503692631	-115.0660400390626	nan	nan	nan	nan	nan	nan	nan	nan	nan	0	0.531543016433716	0	0	-2.447452783584596	0	0	-0.005901099648326639	0	nan	nan	nan	nan	nan	nan	nan	nan	nan	-0.02329392731189728	-0.5528470277786257	-0.1423522680997849	-0.1408332884311677	0.8550447225570683	-0.9212769269943242	nan	nan	nan	0.1315347701311112	1.926433205604554	0.2623859345912934	nan	nan	nan	nan	nan	nan	nan	nan	nan	-1.894780674574553e-16	-2.682515859603883	19.24500274658204	128.6539611816407	-2.955992937088014	-614.3894042968752	nan	nan	nan	-100.8587265014649	-20.8623275756836	690.1035156250002	nan	nan	nan	
